<svg width="28" height="28" viewBox="0 0 28 28" fill="none"
                                xmlns="http://www.w3.org/2000/svg">
                                <path
                                    d="M9.04102 10.5C9.52402 10.5 9.91602 10.108 9.91602 9.625V8.75V7V5.31067V3.53675V2.625C9.91602 2.142 9.52402 1.75 9.04102 1.75C8.55802 1.75 8.16602 2.142 8.16602 2.625V3.82842V5.60233V7V8.75V9.625C8.16602 10.108 8.55802 10.5 9.04102 10.5Z"
                                    fill="#EA5455" />
                                <path
                                    d="M25.0704 1.8974C24.9911 1.42082 24.5408 1.10057 24.063 1.17873L15.166 2.66157V4.43548L24.3518 2.90423C24.8278 2.82548 25.1503 2.37398 25.0704 1.8974Z"
                                    fill="#EA5455" />
                                <path
                                    d="M25.0827 7.875C25.0827 7.392 24.6907 7 24.2077 7H15.166V8.75H24.2077C24.6907 8.75 25.0827 8.358 25.0827 7.875Z"
                                    fill="#EA5455" />
                                <path
                                    d="M12.541 9.9165C13.024 9.9165 13.416 9.5245 13.416 9.0415V8.74984V6.99984V4.72717V2.95325V2.0415C13.416 1.5585 13.024 1.1665 12.541 1.1665C12.058 1.1665 11.666 1.5585 11.666 2.0415V3.24492V5.01884V6.99984V8.74984V9.0415C11.666 9.5245 12.058 9.9165 12.541 9.9165Z"
                                    fill="#EA5455" />
                                <path
                                    d="M24.791 15.1668H22.8001C20.6721 13.1403 18.3749 12.1142 15.9634 12.1877C12.5929 12.2642 10.0764 14.3857 9.26152 15.1668H6.41602V8.75016V7.00016V5.89416V4.12025V3.2085C6.41602 2.7255 6.02402 2.3335 5.54102 2.3335C5.05802 2.3335 4.66602 2.7255 4.66602 3.2085V4.41191L3.0636 4.67908C2.5876 4.75783 2.26502 5.20933 2.34493 5.68591C2.4161 6.1135 2.78652 6.41683 3.20652 6.41683C3.25435 6.41683 3.30277 6.41275 3.35177 6.40458L4.66602 6.18583V7.00016H3.20768C2.72468 7.00016 2.33268 7.39216 2.33268 7.87516C2.33268 8.35816 2.72468 8.75016 3.20768 8.75016H4.66602V15.1668H3.20768C2.08185 15.1668 1.16602 16.0827 1.16602 17.2085C1.16602 22.5157 5.48385 26.8335 10.791 26.8335H17.2077C22.5148 26.8335 26.8327 22.5157 26.8327 17.2085C26.8327 16.0827 25.9168 15.1668 24.791 15.1668ZM12.1368 15.1668C13.1413 14.5514 14.4847 13.9681 16.0177 13.9372C17.3885 13.9121 18.7185 14.3309 20.0071 15.1668H12.1368Z"
                                    fill="#EA5455" />
                            </svg>